<mxfile host="65bd71144e">
    <diagram id="aq6aai_wY9i-jAi8qwnJ" name="第 1 页">
        <mxGraphModel dx="1410" dy="1001" grid="1" gridSize="10" guides="1" tooltips="1" connect="1" arrows="1" fold="1" page="1" pageScale="1" pageWidth="827" pageHeight="1169" math="0" shadow="0">
            <root>
                <mxCell id="0"/>
                <mxCell id="1" parent="0"/>
                <mxCell id="5" value="" style="rounded=0;whiteSpace=wrap;html=1;" vertex="1" parent="1">
                    <mxGeometry x="320" y="190" width="230" height="250" as="geometry"/>
                </mxCell>
                <mxCell id="6" value="主力开发服务器&lt;br&gt;作为跳板机&lt;br&gt;tukit_server.py" style="text;html=1;strokeColor=none;fillColor=none;align=center;verticalAlign=middle;whiteSpace=wrap;rounded=0;" vertex="1" parent="1">
                    <mxGeometry x="336" y="210" width="116" height="50" as="geometry"/>
                </mxCell>
                <mxCell id="10" style="edgeStyle=none;html=1;exitX=0.5;exitY=1;exitDx=0;exitDy=0;entryX=0.5;entryY=0;entryDx=0;entryDy=0;" edge="1" parent="1" source="7" target="9">
                    <mxGeometry relative="1" as="geometry"/>
                </mxCell>
                <mxCell id="17" style="edgeStyle=orthogonalEdgeStyle;html=1;exitX=0.5;exitY=0;exitDx=0;exitDy=0;entryX=0.5;entryY=1;entryDx=0;entryDy=0;" edge="1" parent="1" source="7" target="15">
                    <mxGeometry relative="1" as="geometry"/>
                </mxCell>
                <mxCell id="7" value="笔记本 终端&lt;br&gt;安装WSL" style="rounded=0;whiteSpace=wrap;html=1;" vertex="1" parent="1">
                    <mxGeometry x="20" y="510" width="160" height="80" as="geometry"/>
                </mxCell>
                <mxCell id="12" value="自动检测同步&lt;br&gt;保证实时性" style="edgeStyle=orthogonalEdgeStyle;html=1;exitX=1;exitY=0.5;exitDx=0;exitDy=0;entryX=-0.001;entryY=0.922;entryDx=0;entryDy=0;entryPerimeter=0;" edge="1" parent="1" source="9" target="5">
                    <mxGeometry relative="1" as="geometry">
                        <mxPoint x="310" y="420" as="targetPoint"/>
                        <Array as="points">
                            <mxPoint x="290" y="670"/>
                            <mxPoint x="290" y="421"/>
                        </Array>
                    </mxGeometry>
                </mxCell>
                <mxCell id="9" value="tukit_client.py&lt;br&gt;&lt;br&gt;触发inotify + rsync&lt;br&gt;将本地工作栈同步" style="rounded=0;whiteSpace=wrap;html=1;" vertex="1" parent="1">
                    <mxGeometry x="20" y="630" width="160" height="80" as="geometry"/>
                </mxCell>
                <mxCell id="21" style="edgeStyle=orthogonalEdgeStyle;html=1;exitX=1;exitY=0.5;exitDx=0;exitDy=0;" edge="1" parent="1" source="15" target="24">
                    <mxGeometry relative="1" as="geometry"/>
                </mxCell>
                <mxCell id="15" value="远程触发用脚本&lt;br&gt;tukit_run.py&lt;br&gt;&lt;br&gt;搭配配置文件使用&lt;br&gt;指定 参数 以及目标命令&lt;br&gt;&lt;br&gt;但是相关指令都是在&lt;br&gt;远程主机执行" style="rounded=0;whiteSpace=wrap;html=1;" vertex="1" parent="1">
                    <mxGeometry x="20" y="320" width="160" height="150" as="geometry"/>
                </mxCell>
                <mxCell id="19" value="直接SSH&lt;br&gt;或者vscode&lt;br&gt;remotessh" style="edgeStyle=orthogonalEdgeStyle;html=1;exitX=1;exitY=0.5;exitDx=0;exitDy=0;entryX=-0.001;entryY=0.226;entryDx=0;entryDy=0;entryPerimeter=0;" edge="1" parent="1" source="18" target="5">
                    <mxGeometry relative="1" as="geometry"/>
                </mxCell>
                <mxCell id="18" value="外部临时主机" style="rounded=0;whiteSpace=wrap;html=1;" vertex="1" parent="1">
                    <mxGeometry x="20" y="20" width="160" height="80" as="geometry"/>
                </mxCell>
                <mxCell id="23" style="edgeStyle=orthogonalEdgeStyle;html=1;exitX=1;exitY=0.5;exitDx=0;exitDy=0;entryX=-0.005;entryY=0.473;entryDx=0;entryDy=0;entryPerimeter=0;" edge="1" parent="1" source="22" target="5">
                    <mxGeometry relative="1" as="geometry">
                        <Array as="points">
                            <mxPoint x="230" y="205"/>
                            <mxPoint x="230" y="308"/>
                        </Array>
                    </mxGeometry>
                </mxCell>
                <mxCell id="22" value="快捷指令初始化&lt;br&gt;&lt;br&gt;相关软件初始化&lt;br&gt;&lt;br&gt;配置好软件后&lt;br&gt;实现自动配置ssh" style="rounded=0;whiteSpace=wrap;html=1;" vertex="1" parent="1">
                    <mxGeometry x="20" y="150" width="160" height="110" as="geometry"/>
                </mxCell>
                <mxCell id="27" style="edgeStyle=orthogonalEdgeStyle;html=1;exitX=1;exitY=0.5;exitDx=0;exitDy=0;entryX=0;entryY=0.5;entryDx=0;entryDy=0;" edge="1" parent="1" source="24" target="26">
                    <mxGeometry relative="1" as="geometry">
                        <Array as="points">
                            <mxPoint x="610" y="353"/>
                            <mxPoint x="610" y="75"/>
                        </Array>
                    </mxGeometry>
                </mxCell>
                <mxCell id="28" value="将跳板机内&lt;br&gt;与终端同步的&lt;br&gt;代码&lt;br&gt;直接同步到目标机" style="edgeLabel;html=1;align=center;verticalAlign=middle;resizable=0;points=[];" vertex="1" connectable="0" parent="27">
                    <mxGeometry x="0.0956" relative="1" as="geometry">
                        <mxPoint as="offset"/>
                    </mxGeometry>
                </mxCell>
                <mxCell id="24" value="tukit_server_runner.py" style="rounded=0;whiteSpace=wrap;html=1;" vertex="1" parent="1">
                    <mxGeometry x="350" y="300" width="170" height="105" as="geometry"/>
                </mxCell>
                <mxCell id="26" value="部署服务器" style="rounded=0;whiteSpace=wrap;html=1;" vertex="1" parent="1">
                    <mxGeometry x="660" y="30" width="150" height="90" as="geometry"/>
                </mxCell>
                <mxCell id="29" value="潜在的问题&lt;br&gt;&lt;br&gt;如果主力服务器的文件内容被临时主机连接变化&lt;br&gt;怎么办？&lt;br&gt;- 使用rsync -update 保证本地代码不覆盖远程工作区内更新的文件&lt;br&gt;- 保留一条指令，用于将远程目录直接同步到本地，相当于pull&lt;br&gt;这样可以在工作之余&lt;br&gt;&lt;br&gt;runner内继续使用rsync，实现代码更新效果。&lt;br&gt;&lt;br&gt;" style="text;html=1;strokeColor=none;fillColor=none;align=left;verticalAlign=top;whiteSpace=wrap;rounded=0;" vertex="1" parent="1">
                    <mxGeometry x="380" y="490" width="340" height="330" as="geometry"/>
                </mxCell>
            </root>
        </mxGraphModel>
    </diagram>
</mxfile>